<svg width="18" height="18" viewBox="0 0 18 18" fill="none" xmlns="http://www.w3.org/2000/svg">
<path d="M12.75 5.0625H9.60226C9.41401 5.0625 9.23924 4.96876 9.13424 4.81201L8.30251 3.56396C7.98901 3.09371 7.464 2.8125 6.8985 2.8125H5.25C3.28575 2.8125 1.6875 4.41075 1.6875 6.375V11.625C1.6875 13.5892 3.28575 15.1875 5.25 15.1875H12.75C14.7142 15.1875 16.3125 13.5892 16.3125 11.625V8.625C16.3125 6.66075 14.7142 5.0625 12.75 5.0625ZM15.1875 11.625C15.1875 12.969 14.094 14.0625 12.75 14.0625H5.25C3.906 14.0625 2.8125 12.969 2.8125 11.625V6.375C2.8125 5.031 3.906 3.9375 5.25 3.9375H6.89774C7.08599 3.9375 7.26076 4.03124 7.36576 4.18799L8.19749 5.43604C8.51099 5.90629 9.036 6.1875 9.6015 6.1875H12.75C14.094 6.1875 15.1875 7.281 15.1875 8.625V11.625Z" fill="#4D4D4D"/>
</svg>
